<svg width="338" height="516" viewBox="0 0 338 516" fill="none" xmlns="http://www.w3.org/2000/svg">
<g filter="url(#filter0_d_272_655)">
<path d="M4 20C4 8.9543 12.9543 0 24 0H314C325.046 0 334 8.95431 334 20V488C334 499.046 325.046 508 314 508H24C12.9543 508 4 499.046 4 488V20Z" fill="#F5F3F3"/>
<path d="M4.5 20C4.5 9.23044 13.2304 0.5 24 0.5H314C324.77 0.5 333.5 9.23045 333.5 20V488C333.5 498.77 324.77 507.5 314 507.5H24C13.2304 507.5 4.5 498.77 4.5 488V20Z" stroke="#CB97D8" stroke-opacity="0.83"/>
</g>
<defs>
<filter id="filter0_d_272_655" x="0" y="0" width="338" height="516" filterUnits="userSpaceOnUse" color-interpolation-filters="sRGB">
<feFlood flood-opacity="0" result="BackgroundImageFix"/>
<feColorMatrix in="SourceAlpha" type="matrix" values="0 0 0 0 0 0 0 0 0 0 0 0 0 0 0 0 0 0 127 0" result="hardAlpha"/>
<feOffset dy="4"/>
<feGaussianBlur stdDeviation="2"/>
<feComposite in2="hardAlpha" operator="out"/>
<feColorMatrix type="matrix" values="0 0 0 0 0 0 0 0 0 0 0 0 0 0 0 0 0 0 0.25 0"/>
<feBlend mode="normal" in2="BackgroundImageFix" result="effect1_dropShadow_272_655"/>
<feBlend mode="normal" in="SourceGraphic" in2="effect1_dropShadow_272_655" result="shape"/>
</filter>
</defs>
</svg>
